<svg width="18" height="18" viewBox="0 0 18 18" fill="none" xmlns="http://www.w3.org/2000/svg">
<path d="M6.1875 6.1875V4.5C6.1875 4.05245 6.36529 3.62323 6.68176 3.30676C6.99823 2.99029 7.42745 2.8125 7.875 2.8125H10.125C10.5726 2.8125 11.0018 2.99029 11.3182 3.30676C11.6347 3.62323 11.8125 4.05245 11.8125 4.5C11.8125 4.94755 11.6347 5.37677 11.3182 5.69324C11.0018 6.00971 10.5726 6.1875 10.125 6.1875H2.8125V12.375C2.8125 13.1209 3.10882 13.8363 3.63626 14.3637C4.16371 14.8912 4.87908 15.1875 5.625 15.1875H12.375C13.1209 15.1875 13.8363 14.8912 14.3637 14.3637C14.8912 13.8363 15.1875 13.1209 15.1875 12.375V6.1875H13.125" stroke="black" stroke-width="1.5"/>
</svg>
